# File created by Blade
# Date/Time:  Mon Sep 22 15:50:36 2014
# Frame Rate: 120.000 fps
#------------------------------------------------------
:FULLY-SPECIFIED
:DEGREES
4491
root 2.546730 37.131193 2.655175 0.657462 -5.045184 1.807075
RightUpLeg 6.186915 -5.497102 -4.358633
RightLeg -4.789890 -0.000000 0.000000
RightFoot -11.025996 -14.206113 16.087855
RightToeBase 14.079914 -0.000000 -0.000000
LeftUpLeg 5.905501 3.374401 0.539776
LeftLeg -3.044421 -0.000000 0.000000
LeftFoot -9.486078 14.619728 -17.768418
LeftToeBase 8.098561 -0.000000 -0.000000
Spine 3.740437 -0.544425 -3.264430
RightShoulder -1.223304 -14.567214 -27.357695
RightArm 3.909504 16.303724 27.555946
RightForeArm 10.800834 0.000000 14.591710
RightHand -0.492614 -0.000000 4.320056
RightHandThumb1 -24.326973 -0.000000 -32.862282
LeftShoulder -23.173746 30.519567 15.166564
LeftArm 32.086045 -48.273616 -42.900734
LeftForeArm 37.732627 -0.000000 2.081171
LeftHand -20.187305 -0.000000 -7.311958
LeftHandThumb1 -26.253704 0.000000 33.147579
Head -11.080507 12.959283 1.671879
4492
root 2.546378 37.132402 2.645714 0.678187 -4.991728 1.808372
RightUpLeg 6.162069 -5.517009 -4.352275
RightLeg -4.796702 -0.000000 0.000000
RightFoot -11.025138 -14.244499 16.103850
RightToeBase 14.050782 -0.000000 -0.000000
LeftUpLeg 5.864151 3.353836 0.539216
LeftLeg -3.045215 -0.000000 0.000000
LeftFoot -9.463568 14.601873 -17.759530
LeftToeBase 8.115544 -0.000000 -0.000000
Spine 3.738733 -0.547759 -3.260634
RightShoulder -1.239346 -14.550529 -27.316644
RightArm 3.843167 16.255353 27.458545
RightForeArm 10.746050 -0.000000 14.497939
RightHand -0.241582 -0.000000 4.422702
RightHandThumb1 -24.326973 -0.000000 -32.862282
LeftShoulder -23.125463 30.546698 15.195848
LeftArm 32.075609 -48.315801 -42.879931
LeftForeArm 37.673273 -0.000000 2.001360
LeftHand -20.185924 -0.000000 -7.327525
LeftHandThumb1 -26.253704 0.000000 33.147579
Head -11.108308 12.953347 1.707829
4493
root 2.545587 37.134353 2.636786 0.692619 -4.943226 1.803739
RightUpLeg 6.168849 -5.484903 -4.339089
RightLeg -4.848418 -0.000000 0.000000
RightFoot -10.996673 -14.310701 16.167261
RightToeBase 14.007749 -0.000000 -0.000000
LeftUpLeg 5.828396 3.343933 0.550207
LeftLeg -3.042918 -0.000000 0.000000
LeftFoot -9.426361 14.557501 -17.776245
LeftToeBase 8.080613 -0.000000 -0.000000
Spine 3.746063 -0.552610 -3.248589
RightShoulder -1.251077 -14.533481 -27.262115
RightArm 3.791702 16.173494 27.343700
RightForeArm 10.994743 0.000000 14.447832
RightHand -0.302804 -0.000000 4.350818
RightHandThumb1 -24.326973 -0.000000 -32.862282
LeftShoulder -23.053957 30.548330 15.233562
LeftArm 31.993393 -48.344469 -42.805668
LeftForeArm 37.514811 -0.000000 1.890565
LeftHand -20.127198 -0.000000 -7.338198
LeftHandThumb1 -26.253704 0.000000 33.147579
Head -11.149694 12.959062 1.759967
4494
root 2.548908 37.135602 2.629562 0.694080 -4.884888 1.817401
RightUpLeg 6.128888 -5.622207 -4.359321
RightLeg -4.774932 -0.000000 0.000000
RightFoot -11.009267 -14.252069 16.124685
RightToeBase 14.041302 -0.000000 -0.000000
LeftUpLeg 5.806152 3.318249 0.532979
LeftLeg -3.042189 -0.000000 0.000000
LeftFoot -9.397105 14.544135 -17.757169
LeftToeBase 8.116421 -0.000000 -0.000000
Spine 3.768524 -0.570752 -3.248565
RightShoulder -1.253775 -14.495920 -27.208589
RightArm 3.704414 16.145504 27.214776
RightForeArm 11.130938 0.000000 14.478952
RightHand -0.646426 -0.000000 4.318882
RightHandThumb1 -24.326973 -0.000000 -32.862282
LeftShoulder -22.983639 30.550659 15.276646
LeftArm 31.883146 -48.338559 -42.711340
LeftForeArm 37.423931 -0.000000 1.793284
LeftHand -20.043297 -0.000000 -7.385915
LeftHandThumb1 -26.253704 0.000000 33.147579
Head -11.185091 12.966215 1.794263
4495
root 2.549104 37.136965 2.620486 0.704112 -4.834987 1.803560
RightUpLeg 6.136128 -5.588898 -4.342659
RightLeg -4.813515 -0.000000 0.000000
RightFoot -10.988011 -14.307228 16.162465
RightToeBase 14.024075 -0.000000 -0.000000
LeftUpLeg 5.775516 3.306058 0.548895
LeftLeg -3.040458 -0.000000 0.000000
LeftFoot -9.377046 14.518633 -17.755518
LeftToeBase 8.107734 -0.000000 -0.000000
Spine 3.789036 -0.575784 -3.220631
RightShoulder -1.251320 -14.414763 -27.157787
RightArm 3.573174 16.124569 27.086018
RightForeArm 11.141181 -0.000000 14.438592
RightHand -0.497943 -0.000000 4.267473
RightHandThumb1 -24.326973 -0.000000 -32.862282
LeftShoulder -22.921421 30.554544 15.306887
LeftArm 31.788483 -48.321463 -42.612654
LeftForeArm 37.332909 -0.000000 1.689773
LeftHand -19.999697 -0.000000 -7.313556
LeftHandThumb1 -26.253704 0.000000 33.147579
Head -11.234469 12.957564 1.833452
4496
root 2.550457 37.138230 2.611924 0.710938 -4.770984 1.804655
RightUpLeg 6.125079 -5.637541 -4.342987
RightLeg -4.808968 -0.000000 0.000000
RightFoot -10.995039 -14.304830 16.205121
RightToeBase 14.039030 -0.000000 -0.000000
LeftUpLeg 5.742094 3.282678 0.547567
LeftLeg -3.030974 -0.000000 0.000000
LeftFoot -9.365843 14.492079 -17.762197
LeftToeBase 8.135912 -0.000000 -0.000000
Spine 3.810041 -0.596550 -3.215203
RightShoulder -1.257263 -14.323757 -27.081711
RightArm 3.438147 16.173116 26.939132
RightForeArm 10.936097 -0.000000 14.379663
RightHand -0.416889 -0.000000 4.447712
RightHandThumb1 -24.326973 -0.000000 -32.862282
LeftShoulder -22.846689 30.531581 15.356424
LeftArm 31.655643 -48.311158 -42.495601
LeftForeArm 37.282393 -0.000000 1.604676
LeftHand -19.952410 -0.000000 -7.337361
LeftHandThumb1 -26.253704 0.000000 33.147579
Head -11.276776 12.971219 1.885824
4497
root 2.552119 37.139248 2.603061 0.709765 -4.705374 1.807585
RightUpLeg 6.118757 -5.681809 -4.344723
RightLeg -4.799144 -0.000000 0.000000
RightFoot -10.993663 -14.333110 16.198567
RightToeBase 14.011568 -0.000000 -0.000000
LeftUpLeg 5.716937 3.244508 0.542955
LeftLeg -3.022350 -0.000000 0.000000
LeftFoot -9.349280 14.475401 -17.756587
LeftToeBase 8.177868 -0.000000 -0.000000
Spine 3.850134 -0.614198 -3.207982
RightShoulder -1.292624 -14.248177 -27.027388
RightArm 3.348915 16.243926 26.848724
RightForeArm 10.929937 -0.000000 14.351895
RightHand -0.409100 0.000000 4.476022
RightHandThumb1 -24.326973 -0.000000 -32.862282
LeftShoulder -22.818152 30.543462 15.386470
LeftArm 31.664173 -48.348571 -42.517921
LeftForeArm 37.220003 0.000000 1.498028
LeftHand -19.892697 -0.000000 -7.444090
LeftHandThumb1 -26.253704 0.000000 33.147579
Head -11.340599 12.970636 1.929685
4498
root 2.552971 37.139972 2.594472 0.704086 -4.633927 1.804879
RightUpLeg 6.119544 -5.740354 -4.341427
RightLeg -4.793348 -0.000000 0.000000
RightFoot -10.987479 -14.358276 16.200027
RightToeBase 14.099673 -0.000000 -0.000000
LeftUpLeg 5.696507 3.200841 0.546132
LeftLeg -3.018117 -0.000000 0.000000
LeftFoot -9.327764 14.470672 -17.736869
LeftToeBase 8.133827 -0.000000 -0.000000
Spine 3.897679 -0.645110 -3.197924
RightShoulder -1.297949 -14.085276 -26.991522
RightArm 3.155343 16.382345 26.777553
RightForeArm 10.657969 -0.000000 14.414939
RightHand -0.487942 -0.000000 4.678786
RightHandThumb1 -24.326973 -0.000000 -32.862282
LeftShoulder -22.785943 30.513550 15.449782
LeftArm 31.659687 -48.410606 -42.596249
LeftForeArm 37.227337 -0.000000 1.438623
LeftHand -20.012993 -0.000000 -7.420681
LeftHandThumb1 -26.253704 0.000000 33.147579
Head -11.419401 12.980601 1.984250
4499
root 2.553747 37.141097 2.585859 0.693448 -4.567644 1.809445
RightUpLeg 6.126743 -5.780274 -4.343305
RightLeg -4.789506 -0.000000 0.000000
RightFoot -10.987798 -14.369656 16.212669
RightToeBase 14.031748 -0.000000 -0.000000
LeftUpLeg 5.679370 3.151426 0.542004
LeftLeg -3.006796 -0.000000 0.000000
LeftFoot -9.296749 14.464577 -17.711790
LeftToeBase 8.116314 -0.000000 -0.000000
Spine 3.950131 -0.667910 -3.192750
RightShoulder -1.335461 -14.035439 -26.976217
RightArm 3.083810 16.544265 26.773973
RightForeArm 10.639071 -0.000000 14.420580
RightHand -0.451655 0.000000 4.610886
RightHandThumb1 -24.326973 -0.000000 -32.862282
LeftShoulder -22.751913 30.450911 15.517344
LeftArm 31.647711 -48.456987 -42.672113
LeftForeArm 37.204071 -0.000000 1.377860
LeftHand -19.980402 0.000000 -7.303700
LeftHandThumb1 -26.253704 0.000000 33.147579
Head -11.488816 12.988542 2.022363
4500
root 2.555170 37.142448 2.576383 0.703179 -4.493247 1.805434
RightUpLeg 6.110120 -5.820538 -4.334472
RightLeg -4.779316 -0.000000 0.000000
RightFoot -10.991231 -14.409478 16.225261
RightToeBase 14.029747 -0.000000 -0.000000
LeftUpLeg 5.634740 3.093237 0.543388
LeftLeg -2.984385 -0.000000 0.000000
LeftFoot -9.292296 14.462056 -17.702043
LeftToeBase 8.142609 -0.000000 -0.000000
Spine 3.977586 -0.704495 -3.167783
RightShoulder -1.355082 -13.924670 -26.979405
RightArm 2.962204 16.660115 26.767185
RightForeArm 10.661716 -0.000000 14.425023
RightHand -0.293890 -0.000000 4.478235
RightHandThumb1 -24.326973 -0.000000 -32.862282
LeftShoulder -22.748970 30.436705 15.548288
LeftArm 31.720099 -48.567800 -42.835643
LeftForeArm 37.226373 -0.000000 1.304772
LeftHand -19.927532 -0.000000 -7.362756
LeftHandThumb1 -26.253704 0.000000 33.147579
Head -11.559139 13.013070 2.043282
4501
root 2.556445 37.142987 2.566551 0.704639 -4.422519 1.813290
RightUpLeg 6.113809 -5.837897 -4.338193
RightLeg -4.798166 -0.000000 0.000000
RightFoot -10.992934 -14.462312 16.225277
RightToeBase 14.071994 -0.000000 -0.000000
LeftUpLeg 5.599013 3.047567 0.536363
LeftLeg -2.966493 -0.000000 0.000000
LeftFoot -9.274192 14.420737 -17.795820
LeftToeBase 8.063036 -0.000000 -0.000000
Spine 4.018456 -0.732659 -3.160709
RightShoulder -1.389235 -13.861292 -26.985525
RightArm 2.887688 16.741499 26.788079
RightForeArm 10.806653 -0.000000 14.404755
RightHand -0.308936 0.000000 4.401053
RightHandThumb1 -24.326973 -0.000000 -32.862282
LeftShoulder -22.745939 30.424099 15.578216
LeftArm 31.815338 -48.696208 -43.013954
LeftForeArm 37.177154 -0.000000 1.256188
LeftHand -19.969554 -0.000000 -7.349511
LeftHandThumb1 -26.253704 0.000000 33.147579
Head -11.644584 12.998526 2.064824
4502
root 2.558114 37.144200 2.556478 0.707415 -4.343856 1.816431
RightUpLeg 6.109032 -5.868908 -4.338420
RightLeg -4.796094 -0.000000 0.000000
RightFoot -10.994000 -14.497764 16.258157
RightToeBase 14.071545 -0.000000 -0.000000
LeftUpLeg 5.563090 2.994910 0.532075
LeftLeg -2.952976 -0.000000 0.000000
LeftFoot -9.255882 14.428401 -17.699944
LeftToeBase 8.157020 -0.000000 -0.000000
Spine 4.054578 -0.749525 -3.149040
RightShoulder -1.410760 -13.796574 -26.970083
RightArm 2.755144 16.695030 26.737143
RightForeArm 10.821228 -0.000000 14.344641
RightHand -0.019995 -0.000000 4.403542
RightHandThumb1 -24.326973 -0.000000 -32.862282
LeftShoulder -22.706783 30.387215 15.622801
LeftArm 31.864404 -48.795932 -43.142236
LeftForeArm 37.122689 -0.000000 1.196711
LeftHand -20.098741 -0.000000 -7.303649
LeftHandThumb1 -26.253704 0.000000 33.147579
Head -11.713306 12.978648 2.105655
